<svg xmlns="http://www.w3.org/2000/svg" width="31.025" height="31.022" viewBox="0 0 31.025 31.022">
  <path id="icon-phone" d="M-1514.128,175.12a1.1,1.1,0,0,1,.72.549c.144.226.277.46.407.7.777,1.4,1.547,2.8,2.332,4.2.183.325.421.619.622.934a4.5,4.5,0,0,1,.314.583,1.028,1.028,0,0,1-.122,1.119,6.485,6.485,0,0,1-.754.828c-.633.558-1.3,1.08-1.933,1.634a9.336,9.336,0,0,0-.82.832.927.927,0,0,0-.166,1.033,5.641,5.641,0,0,0,.314.672,37.91,37.91,0,0,0,2.273,3.611,22.054,22.054,0,0,0,7.1,6.124c.41.228.815.464,1.222.7.023.013.047.023.071.035a1.152,1.152,0,0,0,1.5-.23c.384-.406.757-.822,1.125-1.242.479-.547.941-1.11,1.428-1.65a3.694,3.694,0,0,1,.6-.49.984.984,0,0,1,.993-.108,3.106,3.106,0,0,1,.643.334,31.406,31.406,0,0,0,3.136,1.868c.778.433,1.566.849,2.348,1.274.1.055.2.12.3.182a1.212,1.212,0,0,1,.612.765v.538a.638.638,0,0,0-.024.074c-.129.645-.243,1.293-.39,1.933a3.5,3.5,0,0,1-1.514,2.2,21.05,21.05,0,0,1-1.885,1.123,7.9,7.9,0,0,1-3.173.889,8.092,8.092,0,0,1-2.936-.351c-1.035-.321-2.051-.7-3.075-1.059a21.226,21.226,0,0,1-5.963-3.2,40.153,40.153,0,0,1-6.192-5.887,25.757,25.757,0,0,1-2.943-4.127,24.349,24.349,0,0,1-1.566-3.552,30.774,30.774,0,0,1-1.1-3.277,7.987,7.987,0,0,1,.027-4.173,11.016,11.016,0,0,1,1.93-3.706,3.144,3.144,0,0,1,1.558-1.117c.437-.136.879-.26,1.324-.363.363-.084.734-.131,1.1-.194Z" transform="translate(1520.903 -175.12)" fill="#3c3d3d"/>
</svg>
